<svg xmlns="http://www.w3.org/2000/svg" xmlns:ev="http://www.w3.org/2001/xml-events" xmlns:xlink="http://www.w3.org/1999/xlink" width="585.827" height="353.386" class="st9" color-interpolation-filters="sRGB" viewBox="0 0 439.37 265.039" xml:space="preserve"><style type="text/css">.st1{fill:#fff2cc;stroke:#000;stroke-linecap:round;stroke-linejoin:round;stroke-width:.75}.st2{fill:#000;font-family:Arial;font-size:.916672em}.st3{fill:#ebf1df;stroke:#000;stroke-linecap:round;stroke-linejoin:round;stroke-width:.75}.st4{font-size:1em}.st5{fill:#fcebdd;stroke-linecap:round;stroke-linejoin:round;stroke-width:.75}.st5,.st6{stroke:#000}.st6,.st7{stroke-linecap:round;stroke-linejoin:round;stroke-width:.75}.st6{fill:#dbeef3}.st7{fill:none;stroke:none}.st8{fill:#000;font-family:Arial;font-size:1.16666em}.st9{fill:none;fill-rule:evenodd;font-size:12px;overflow:visible;stroke-linecap:square;stroke-miterlimit:3}</style><g><title>Page-6</title><g id="shape1-1" transform="translate(10.4612,-46.6765)"><title>Sheet.1</title><desc>CPU/SOC</desc><rect width="85.039" height="42.52" x="0" y="222.52" class="st1"/><text x="17.46" y="247.08" class="st2">CPU/SOC</text></g><g id="shape2-4" transform="translate(98.3352,-46.6765)"><title>Sheet.2</title><desc>HW peripherals</desc><rect width="96.378" height="42.52" x="0" y="222.52" class="st1"/><text x="10.29" y="247.08" class="st2">HW peripherals</text></g><g id="shape3-7" transform="translate(109.674,-92.0309)"><title>Sheet.3</title><desc>Drivers</desc><path d="M0 265.04 L85.04 265.04 L85.04 185.67 L28.68 185.67 L28.35 211.18 L0 211.18 L0 265.04 Z" class="st3"/><text x="25.1" y="228.65" class="st2">Drivers</text></g><g id="shape4-10" transform="translate(10.4612,-92.0309)"><title>Sheet.4</title><desc>Architecture/SOC dependent layer</desc><rect width="96.378" height="34.016" x="0" y="231.024" class="st3"/><text x="5.4" y="244.73" class="st2">Architecture/SOC <tspan x="8.74" class="st4" dy="1.2em">dependent layer</tspan></text></g><g id="shape5-14" transform="translate(10.4612,-128.881)"><title>Sheet.5</title><desc>Zephyr Kernel</desc><path d="M0 265.04 L96.38 265.04 L96.38 245.2 L124.72 245.2 L124.72 222.52 L85.04 222.52 L0 222.52 L0 265.04 Z" class="st3"/><text x="45.24" y="240.48" class="st2">Zephyr<tspan x="46.46" class="st4" dy="1.2em">Kernel</tspan></text></g><g id="shape6-18" transform="translate(10.4612,-174.236)"><title>Sheet.6</title><desc>Application</desc><rect width="184.252" height="34.016" x="0" y="231.024" class="st3"/><text x="65.22" y="251.33" class="st2">Application</text></g><g id="shape7-21" transform="translate(244.319,0.0951231)"><title>Sheet.7</title><desc>Host OS Kernel (i.e. Linux)</desc><rect width="184.252" height="42.52" x="0" y="222.52" class="st5"/><text x="26.71" y="247.08" class="st2">Host OS Kernel (i.e. Linux)</text></g><g id="shape8-24" transform="translate(332.193,-47.2733)"><title>Sheet.8</title><desc>HW models / host HW API adaptation</desc><rect width="96.378" height="42.52" x="0" y="222.52" class="st6"/><text x="16.71" y="233.88" class="st2">HW models / <tspan x="16.71" class="st4" dy="1.2em">host HW API </tspan><tspan x="22.5" class="st4" dy="1.2em">adaptation</tspan></text></g><g id="shape9-29" transform="translate(343.532,-92.6276)"><title>Sheet.9</title><desc>Drivers</desc><path d="M0 265.04 L85.04 265.04 L85.04 185.67 L28.68 185.67 L28.35 211.18 L0 211.18 L0 265.04 Z" class="st6"/><text x="25.1" y="235.25" class="st2">Drivers</text></g><g id="shape10-32" transform="translate(244.319,-47.2435)"><title>Sheet.10</title><desc>POSIX Arch</desc><path d="M0 265.01 L85.04 265.04 L85.04 219.83 L96.38 219.83 L96.38 185.64 L0 185.64 L0 265.01 Z" class="st6"/><text x="31.38" y="222.04" class="st2">POSIX<tspan x="36.88" class="st4" dy="1.2em">Arch</tspan></text></g><g id="shape11-36" transform="translate(244.319,-129.478)"><title>Sheet.11</title><desc>Zephyr Kernel</desc><path d="M0 265.04 L96.38 265.04 L96.38 245.2 L124.72 245.2 L124.72 222.52 L85.04 222.52 L0 222.52 L0 265.04 Z" class="st3"/><text x="45.24" y="240.48" class="st2">Zephyr<tspan x="46.46" class="st4" dy="1.2em">Kernel</tspan></text></g><g id="shape12-40" transform="translate(244.319,-174.832)"><title>Sheet.12</title><desc>Application</desc><rect width="184.252" height="34.016" x="0" y="231.024" class="st3"/><text x="65.22" y="251.33" class="st2">Application</text></g><g id="shape13-43" transform="translate(33.847,-226.677)"><title>Sheet.13</title><desc>Normal Zephyr layering</desc><rect width="134.646" height="28.346" x="0" y="236.693" class="st7"/><text x="21.03" y="246.67" class="st8">Normal Zephyr <tspan x="42.81" class="st4" dy="1.2em">layering</tspan></text></g><g id="shape14-47" transform="translate(244.319,-226.677)"><title>Sheet.14</title><desc>Native_posix &amp; _bsim boards Zephyr layering</desc><rect width="184.252" height="28.346" x="0" y="236.693" class="st7"/><text x="52.05" y="238.27" class="st8">Native_posix <tspan x="43.49" class="st4" dy="1.2em">&amp; _bsim boards </tspan><tspan x="43.88" class="st4" dy="1.2em">Zephyr layering</tspan></text></g></g></svg>