<svg xmlns="http://www.w3.org/2000/svg" xmlns:ev="http://www.w3.org/2001/xml-events" xmlns:xlink="http://www.w3.org/1999/xlink" width="805.04" height="423.307" class="st12" color-interpolation-filters="sRGB" viewBox="0 0 603.78 317.48" xml:space="preserve"><style type="text/css">.st1{fill:#ebf1df;stroke:#000;stroke-linecap:round;stroke-linejoin:round;stroke-width:.75}.st2{fill:#000;font-family:Arial;font-size:.916672em}.st3{font-size:1em}.st4{fill:none;stroke:none;stroke-linecap:round;stroke-linejoin:round;stroke-width:.75}.st5{fill:#000;font-family:Arial;font-size:1.08334em}.st6{fill:#ebf1df;fill-opacity:.75;stroke-dasharray:5.25,3.75,0,3.75;stroke-width:.75}.st6,.st7,.st8{stroke:#000;stroke-linecap:round;stroke-linejoin:round}.st7{fill:#fcebdd;stroke-width:.75}.st8{stroke-width:.24}.st10,.st9{stroke:#612621}.st9{marker-end:url(#mrkr4-53);marker-start:url(#mrkr4-51);stroke-width:5}.st10{fill:#612621;fill-opacity:1;stroke-opacity:1;stroke-width:.73529411764706}.st11{stroke:#000;stroke-dasharray:0,20;stroke-linecap:round;stroke-linejoin:round;stroke-width:4}.st12{fill:none;fill-rule:evenodd;font-size:12px;overflow:visible;stroke-linecap:square;stroke-miterlimit:3}</style><defs id="Markers"><g id="lend4"><path d="M 2 1 L 0 0 L 2 -1 L 2 1" style="stroke:none"/></g><marker id="mrkr4-51" class="st10" markerUnits="strokeWidth" orient="auto" overflow="visible" refX="2.648"><use transform="scale(1.36)" xlink:href="#lend4"/></marker><marker id="mrkr4-53" class="st10" markerUnits="strokeWidth" orient="auto" overflow="visible" refX="-2.72"><use transform="scale(-1.36,-1.36)" xlink:href="#lend4"/></marker></defs><g><title>Zephyr+SIM1</title><g id="shape1-1" transform="translate(96.5271,-72.455)"><title>Sheet.1</title><desc>HW models</desc><rect width="96.378" height="42.52" x="0" y="274.961" class="st1"/><text x="4" y="299.52" class="st2">HW models</text></g><g id="shape2-4" transform="translate(107.866,-117.809)"><title>Sheet.2</title><desc>Drivers</desc><path d="M0 317.48 L85.04 317.48 L85.04 238.11 L28.68 238.11 L28.35 263.62 L0 263.62 L0 317.48 Z" class="st1"/><text x="10.11" y="294.3" class="st2">Drivers</text></g><g id="shape3-7" transform="translate(8.65313,-72.4252)"><title>Sheet.3</title><desc>POSIX Arch</desc><path d="M0 317.45 L85.04 317.48 L85.04 272.27 L96.38 272.27 L96.38 238.08 L0 238.08 L0 317.45 Z" class="st1"/><text x="31.38" y="274.48" class="st2">POSIX<tspan x="36.88" class="st3" dy="1.2em">Arch</tspan></text></g><g id="shape4-11" transform="translate(8.65313,-154.66)"><title>Sheet.4</title><desc>Zephyr Kernel</desc><path d="M0 317.48 L96.38 317.48 L96.38 297.64 L124.72 297.64 L124.72 274.96 L85.04 274.96 L0 274.96 L0 317.48 Z" class="st1"/><text x="45.24" y="292.92" class="st2">Zephyr<tspan x="46.46" class="st3" dy="1.2em">Kernel</tspan></text></g><g id="shape5-15" transform="translate(8.65313,-200.014)"><title>Sheet.5</title><desc>Application</desc><rect width="184.252" height="56.693" x="0" y="260.787" class="st1"/><text x="65.22" y="292.43" class="st2">Application</text></g><g id="shape6-18" transform="translate(33.4563,-283.465)"><title>Sheet.6</title><desc>One Zephyr bsim device binary</desc><rect width="134.646" height="28.346" x="0" y="289.134" class="st4"/><text x="17.47" y="299.41" class="st5">One Zephyr bsim <tspan x="29.02" class="st3" dy="1.2em">device binary</tspan></text></g><g id="shape7-22" transform="translate(158.889,-72.4252)"><title>Sheet.7</title><desc>radio stack</desc><path d="M0 317.48 L34.02 317.48 L34.02 192.73 L0 192.73 L0 317.48 Z" class="st6"/><text x="4.78" y="245.2" class="st2">radio <tspan x="4.17" class="st3" dy="1.2em">stack</tspan></text></g><g id="shape8-26" transform="translate(8.65313,-7.08661)"><title>Sheet.8</title><desc>Host OS Kernel (i.e. Linux)</desc><rect width="586.772" height="42.52" x="0" y="274.961" class="st7"/><text x="227.97" y="306.12" class="st2">Host OS Kernel (i.e. Linux)</text></g><g id="shape10-29" transform="translate(8.65313,-269.291)"><title>Bracket</title><path d="M0 317.48 A5.09365 5.09365 0 0 1 4.5 312.98 L89.27 312.98 A5.09365 5.09365 -180 0 0 93.77 308.48 A5.09365 5.09365 -180 0 0 98.27 312.98 L179.75 312.98 A5.09365 5.09365 0 0 1 184.25 317.48" class="st8"/></g><g id="shape11-32" transform="translate(249.598,-72.4252)"><title>Sheet.11</title><desc>bsim Phy binary</desc><rect width="70.866" height="56.693" x="0" y="260.787" class="st1"/><text x="23.82" y="279.23" class="st2">bsim<tspan x="25.96" class="st3" dy="1.2em">Phy</tspan><tspan x="20.45" class="st3" dy="1.2em">binary</tspan></text></g><g id="shape12-37" transform="translate(445.189,-70.8661)"><title>Sheet.12</title><desc>Other device binary</desc><rect width="70.866" height="56.693" x="0" y="260.787" class="st1"/><text x="4.25" y="285.83" class="st2">Other device <tspan x="20.45" class="st3" dy="1.2em">binary</tspan></text></g><g id="shape13-41" transform="translate(348.811,-72.4252)"><title>Sheet.13</title><desc>Other device binary</desc><rect width="70.866" height="56.693" x="0" y="260.787" class="st1"/><text x="4.25" y="285.83" class="st2">Other device <tspan x="20.45" class="st3" dy="1.2em">binary</tspan></text></g><g id="shape22-45" transform="translate(185.818,-43.937)"><title>Sheet.22</title><path d="M0 296.7 L0 297.06 L0 300.47 A12.5275 20.044 -180 0 0 10.63 317.48 L62.01 317.48 A10.3705 16.5929 -180 0 0 70.87 299.91 L70.87 297.06" class="st9"/></g><g id="shape23-54" transform="translate(311.14,-43.937)"><title>Sheet.23</title><path d="M0 296.7 L0 297.06 L0 300.47 A8.16264 20.044 -180 0 0 6.93 317.48 L40.4 317.48 A6.75722 16.5929 -180 0 0 46.17 299.91 L46.17 297.06" class="st9"/></g><g id="shape24-61" transform="translate(295.102,-35.4331)"><title>Sheet.24</title><path d="M0 288.2 L0 288.56 L0 296.22 A28.0352 25.055 -180 0 0 23.79 317.48 L138.77 317.48 A23.2082 20.7411 -180 0 0 158.59 295.51 L158.59 288.56" class="st9"/></g><g id="shape25-68" transform="translate(533.063,-99.2126)"><title>Sheet.25</title><path d="M0 317.48 L64.9 317.48" class="st11"/></g></g></svg>